<?xml version="1.0" encoding="UTF-8" standalone="no"?>
<!DOCTYPE svg PUBLIC "-//W3C//DTD SVG 1.1//EN" "http://www.w3.org/Graphics/SVG/1.1/DTD/svg11.dtd">
<svg width="100%" height="100%" viewBox="0 0 161 161" version="1.1" xmlns="http://www.w3.org/2000/svg" xmlns:xlink="http://www.w3.org/1999/xlink" xml:space="preserve" xmlns:serif="http://www.serif.com/" style="fill-rule:evenodd;clip-rule:evenodd;stroke-linejoin:round;stroke-miterlimit:1.41421;">
    <g transform="matrix(1,0,0,1,-83.9656,-109.897)">
        <path d="M155.233,120.671C155.233,114.725 159.152,109.897 163.98,109.897C168.808,109.897 172.727,114.725 172.727,120.671C174.206,114.911 179.203,111.21 183.879,112.411C188.555,113.611 191.151,119.262 189.672,125.022C192.536,119.811 198.297,117.468 202.527,119.794C206.758,122.12 207.867,128.239 205.002,133.45C209.073,129.115 215.235,128.278 218.754,131.583C222.273,134.888 221.825,141.09 217.755,145.425C222.775,142.239 228.952,142.961 231.539,147.037C234.125,151.113 232.149,157.01 227.128,160.196C232.784,158.358 238.587,160.594 240.078,165.185C241.57,169.777 238.19,174.996 232.534,176.834C238.469,176.46 243.534,180.069 243.837,184.887C244.14,189.705 239.568,193.92 233.633,194.293C239.474,195.408 243.482,200.162 242.577,204.904C241.673,209.647 236.196,212.592 230.355,211.478C235.735,214.01 238.435,219.612 236.379,223.98C234.324,228.348 228.287,229.839 222.906,227.307C227.488,231.097 228.71,237.195 225.632,240.914C222.555,244.634 216.337,244.577 211.755,240.786C215.25,245.597 214.917,251.807 211.011,254.644C207.106,257.482 201.097,255.88 197.602,251.069C199.791,256.598 197.924,262.53 193.435,264.307C188.947,266.084 183.525,263.038 181.336,257.509C182.082,263.409 178.798,268.69 174.009,269.295C169.219,269.9 164.725,265.601 163.98,259.702C163.235,265.601 158.741,269.9 153.952,269.295C149.162,268.69 145.879,263.409 146.624,257.509C144.435,263.038 139.013,266.084 134.525,264.307C130.036,262.53 128.169,256.598 130.358,251.069C126.863,255.88 120.854,257.482 116.949,254.644C113.043,251.807 112.71,245.597 116.205,240.786C111.623,244.577 105.405,244.634 102.328,240.914C99.251,237.195 100.472,231.097 105.054,227.307C99.673,229.839 93.636,228.348 91.581,223.98C89.525,219.612 92.225,214.01 97.605,211.478C91.764,212.592 86.287,209.647 85.383,204.904C84.478,200.162 88.486,195.408 94.327,194.293C88.393,193.92 83.82,189.705 84.123,184.887C84.427,180.069 89.491,176.46 95.426,176.834C89.77,174.996 86.39,169.777 87.882,165.185C89.374,160.594 95.176,158.358 100.832,160.196C95.811,157.01 93.835,151.113 96.422,147.037C99.008,142.961 105.185,142.239 110.206,145.425C106.135,141.09 105.687,134.888 109.206,131.583C112.726,128.278 118.888,129.115 122.958,133.45C120.093,128.239 121.202,122.12 125.433,119.794C129.663,117.468 135.424,119.811 138.288,125.022C136.81,119.262 139.405,113.611 144.081,112.411C148.757,111.21 153.754,114.911 155.233,120.671Z" style="fill:rgb(0,10,42);"/>
    </g>
    <g transform="matrix(0.812784,0,0,0.812784,-85.0716,-73.6674)">
        <circle cx="173.562" cy="175.853" r="12.379" style="fill:white;"/>
    </g>
    <g transform="matrix(0.812784,0,0,0.812784,-37.0354,-73.6674)">
        <circle cx="173.562" cy="175.853" r="12.379" style="fill:white;"/>
    </g>
</svg>
